<svg width="31" height="31" viewBox="0 0 31 31" fill="none" xmlns="http://www.w3.org/2000/svg">
<path d="M30.1828 26.2234L24.6492 20.7028C24.6213 20.6749 24.5885 20.6545 24.5593 20.6346C24.0621 21.3991 23.4675 22.1257 22.7966 22.7966C22.1264 23.4675 21.3985 24.062 20.626 24.5605C20.6533 24.5891 20.6737 24.6225 20.7016 24.6498L26.2241 30.1828C27.3172 31.274 29.0922 31.2728 30.1816 30.1828C31.2722 29.0916 31.2728 27.3159 30.1828 26.2234Z" fill="white"/>
<path d="M22.0079 3.76903C16.9808 -1.25679 8.80286 -1.25679 3.77518 3.77027C-1.25746 8.79609 -1.25808 16.9803 3.77146 22.0079C8.801 27.0331 16.9808 27.0331 22.0079 22.0073C27.0349 16.9803 27.0343 8.79547 22.0079 3.76903ZM6.14115 19.6407C2.41921 15.9188 2.42045 9.85941 6.14239 6.14119C9.86432 2.41988 15.92 2.41988 19.6407 6.13933C23.3601 9.85941 23.3589 15.912 19.6407 19.6395C15.9194 23.3496 9.86432 23.3633 6.14115 19.6407Z" fill="white"/>
</svg>
